PathFileType	4	(X/Y/Z)	D:\TRACE\spot_10-12-23\spot_arm_body_motion_3_4-v60.trc
DataRate	CameraRate	NumFrames	NumMarkers	Units	OrigDataRate	OrigDataStartFrame	OrigNumFrames
100.00	100.00	      39	9	mm	100.00	1	      7000
Frame#	Time	front left toe			Front right toe			aft left toe			aft right toe			Arm			FL body			FR body			AL Body			AR Body			
		X1	Y1	Z1	X2	Y2	Z2	X3	Y3	Z3	X4	Y4	Z4	X5	Y5	Z5	X6	Y6	Z6	X7	Y7	Z7	X8	Y8	Z8	X9	Y9	Z9	

1	0.000	-243.07634	31.34086	-18.75825	229.01485	36.37109	-39.86708	-192.20627	-77.64478	601.43066	235.90918	-79.84092	587.17407	1.43579	922.66925	-150.23125	-87.05566	624.21399	-115.53712	64.88935	629.79608	-123.65728	-43.94019	473.17975	754.48279	107.21244	471.21118	748.08618	
2	0.010	-243.07585	31.34648	-18.83094	229.08852	36.42265	-39.83367	-192.21916	-77.60317	601.40198	235.90369	-79.83970	587.14197	1.50642	923.02820	-150.82874	-86.82274	625.14325	-115.35477	65.16855	630.71307	-123.56177	-43.99315	474.01563	754.69147	107.65657	472.14609	749.24506	
3	0.020	-243.06981	31.36786	-18.86921	229.06108	36.38366	-39.94457	-192.22975	-77.62744	601.36542	235.91628	-79.82305	587.09094	1.43053	923.38239	-151.44017	-86.99702	626.01788	-115.38961	64.74671	631.78589	-123.60085	-43.80205	474.90363	754.74365	106.87843	472.58182	748.53082	
4	0.030	-243.06519	31.38626	-18.94755	229.10397	36.43070	-39.90000	-192.23740	-77.60582	601.33502	235.86781	-79.79684	587.01624	1.27315	923.68103	-152.03833	-86.88033	626.96985	-115.26649	65.13134	632.48999	-123.32377	-44.31015	475.63885	754.63599	107.00056	473.45490	748.53223	
5	0.040	-243.06944	31.40326	-19.02767	229.07976	36.42211	-39.97027	-192.22710	-77.64838	601.26544	235.89272	-79.81210	587.02527	1.27558	924.05481	-152.54727	-86.75524	627.60388	-115.17582	64.97456	633.56030	-123.42495	-44.35786	476.06320	754.72192	107.18430	474.32846	749.28070	
6	0.050	-243.05800	31.39515	-19.08136	229.08052	36.39628	-40.03925	-192.22455	-77.68420	601.27936	235.88893	-79.79691	586.98199	0.91639	924.41455	-153.27422	-86.92575	628.55591	-115.18171	64.92878	634.24084	-123.28875	-44.32965	476.81876	754.82208	106.62371	474.86969	748.70721	
7	0.060	-243.08604	31.41565	-19.14915	228.99553	36.38907	-40.01440	-192.22690	-77.66245	601.24261	235.88734	-79.80100	586.92987	1.09347	924.72333	-153.79422	-86.75390	629.26147	-115.02363	65.39535	634.51349	-122.45217	-44.26910	477.43573	754.79297	106.80238	474.92761	748.53461	
8	0.070	-243.07112	31.42403	-19.18854	229.08566	36.43825	-39.97428	-192.21097	-77.67474	601.21515	235.86145	-79.79182	586.92023	1.06085	925.14502	-154.48744	-86.75210	629.75604	-114.99652	65.42980	635.33643	-122.40927	-44.41805	477.85641	754.76154	106.46837	475.74557	748.74347	
9	0.080	-243.03694	31.40841	-19.22772	229.09589	36.41773	-40.02059	-192.23045	-77.65192	601.19373	235.88016	-79.76938	586.90607	1.10119	925.34387	-154.91064	-86.84986	630.69757	-114.88885	65.31012	636.02106	-122.32464	-43.61377	478.04001	754.53619	106.22694	476.37396	748.75647	
10	0.090	-243.03165	31.39214	-19.24832	229.09341	36.52890	-39.98375	-192.21074	-77.72115	601.18054	235.87442	-79.76504	586.90186	1.02217	925.65778	-155.42314	-86.68033	631.27087	-114.75828	65.35345	636.73688	-122.18497	-43.75417	478.42371	754.50610	106.01780	476.67303	748.84460	
11	0.100	-243.01764	31.33499	-19.28015	229.14519	36.43665	-40.03060	-192.19228	-77.72379	601.18433	235.90443	-79.77640	586.90668	1.02318	925.97827	-155.96883	-86.66668	631.66364	-114.72752	65.47083	637.22034	-121.99976	-43.89789	478.73160	754.52814	106.24223	476.76276	749.17072	
12	0.110	-243.08261	31.36434	-19.30055	229.04727	36.31121	-40.23508	-192.19510	-77.71214	601.13470	235.82799	-79.76117	586.84406	1.07558	926.39056	-156.62555	-86.80137	632.30310	-114.67210	65.35812	637.83453	-122.09178	-44.70130	479.08826	754.89343	106.25687	477.03622	749.34283	
13	0.120	-243.08354	31.35192	-19.32553	229.04909	36.44709	-40.06060	-192.18410	-77.70567	601.12042	235.84402	-79.75639	586.85321	0.90660	926.66925	-157.21358	-86.75417	633.03943	-114.66167	65.36224	638.32037	-122.01902	-44.72870	479.23022	754.90051	106.22518	477.16678	749.41907	
14	0.130	-243.07861	31.34517	-19.33777	229.02377	36.48161	-40.04655	-192.23373	-77.69349	601.07928	235.82338	-79.74504	586.82751	0.93240	927.01355	-157.72334	-86.70317	633.62903	-114.47182	65.35265	638.88739	-121.87113	-44.81025	479.40887	754.92444	106.12162	477.23941	748.73639	
15	0.140	-243.08441	31.34372	-19.36416	229.05681	36.29429	-40.22699	-192.22836	-77.69855	601.07739	235.81461	-79.76646	586.84393	0.94924	927.28400	-158.27861	-86.58477	633.71729	-114.53225	65.44324	639.63422	-122.22192	-44.93693	479.53751	754.93390	105.97176	477.31076	748.76532	
16	0.150	-243.07193	31.37466	-19.41110	229.06587	36.29308	-40.29986	-192.21573	-77.73795	601.03394	235.85025	-79.75034	586.85260	0.84175	927.60596	-158.88510	-86.58855	634.08063	-114.45993	65.58966	639.61450	-121.66888	-45.07652	479.58887	754.90527	105.95719	477.49988	748.75879	
17	0.160	-243.08939	31.32118	-19.40469	229.15775	36.45107	-40.08440	-192.24673	-77.76328	601.01575	235.87029	-79.73421	586.84546	0.97923	927.97968	-159.37561	-86.56222	634.50342	-114.39164	65.63111	639.92737	-121.63974	-45.21637	479.65750	754.89404	105.85526	477.64011	748.76447	
18	0.170	-243.05583	31.35024	-19.41506	229.06931	36.45904	-40.13213	-192.26979	-77.80491	601.03174	235.83691	-79.74798	586.82758	0.94919	928.45190	-159.89862	-86.49866	634.86707	-114.38960	65.57704	640.21155	-121.66854	-45.33238	479.75943	754.91071	105.43204	477.66425	748.98621	
19	0.180	-243.08246	31.36064	-19.42199	229.11520	36.46881	-40.11910	-192.29880	-77.78743	601.03815	235.82068	-79.73885	586.88531	1.02247	928.91937	-160.49432	-86.43583	635.23315	-114.33314	65.52393	640.74823	-122.11873	-45.42655	479.80884	754.89154	105.35862	477.68582	748.98969	
20	0.190	-243.09329	31.32880	-19.41520	229.07474	36.37643	-40.20673	-192.30208	-77.81079	601.03253	235.84959	-79.74432	586.87854	0.76832	929.19879	-161.13434	-86.42480	635.40790	-114.31351	65.49412	641.03076	-122.05796	-45.53706	479.87439	754.93274	105.24057	477.74268	749.01581	
21	0.200	-243.11180	31.29833	-19.41934	229.06837	36.45005	-40.09030	-192.30855	-77.81511	601.02332	235.79968	-79.72459	586.82166	0.82529	929.39893	-161.52823	-86.35827	635.54517	-114.34217	65.54968	641.23535	-122.02872	-45.66181	479.84973	754.94208	105.12741	477.75815	749.02216	
22	0.210	-243.09715	31.34085	-19.43368	229.05826	36.40049	-40.14705	-192.30006	-77.77148	600.98041	235.80043	-79.72383	586.82849	0.74132	929.75763	-162.30698	-86.37940	635.66656	-114.28888	65.57776	641.44440	-121.99075	-45.74120	479.88321	754.96973	105.07037	477.74536	749.04590	
23	0.220	-243.06735	31.32555	-19.44796	229.05154	36.32502	-40.25393	-192.28712	-77.78103	600.97461	235.83076	-79.74197	586.83453	0.74579	930.13727	-162.79498	-86.31378	635.76324	-114.20815	65.61777	641.60974	-121.97310	-45.74202	479.86252	755.01080	105.03240	477.72629	749.08722	
24	0.230	-243.07828	31.30917	-19.43122	229.08179	36.30710	-40.24952	-192.28976	-77.79505	601.02142	235.85719	-79.75119	586.87952	0.48912	930.71301	-163.33374	-86.35391	635.91119	-114.12766	65.58585	641.73383	-121.93979	-45.73531	479.88150	755.04108	105.05730	477.72879	749.08789	
25	0.240	-243.06683	31.29465	-19.43163	229.04131	36.48010	-40.13153	-192.28656	-77.78767	601.01410	235.88603	-79.77238	586.88318	0.56377	931.01563	-163.86412	-86.28681	635.95984	-114.07191	65.84319	641.58527	-121.80659	-45.81562	479.80139	755.04547	105.16405	477.71475	749.12512	
26	0.250	-243.07651	31.28024	-19.43738	229.04982	36.45741	-40.13695	-192.29671	-77.79773	601.02118	235.89786	-79.75933	586.88721	0.46751	931.32385	-164.43881	-86.28793	636.02911	-114.04081	65.84437	641.69073	-121.76163	-45.80076	479.76349	755.07477	105.06963	477.63776	749.18231	
27	0.260	-243.09055	31.27535	-19.43612	229.04861	36.32863	-40.25998	-192.27907	-77.82877	601.02496	235.86353	-79.77341	586.88770	0.48016	931.71332	-165.09230	-86.30956	636.07654	-114.01698	65.86031	641.70258	-121.74757	-45.82683	479.76126	755.10065	105.34010	477.73764	748.98334	
28	0.270	-243.11050	31.25604	-19.42171	229.09113	36.49624	-40.10451	-192.30534	-77.80075	601.00598	235.88124	-79.76855	586.87122	0.54243	932.17493	-165.58035	-86.31144	636.10760	-113.96318	65.79429	641.73938	-121.74103	-45.86472	479.75214	755.12305	105.04398	477.62393	749.27216	
29	0.280	-243.10666	31.27346	-19.42945	228.96106	36.18898	-40.38363	-192.30124	-77.84095	601.00305	235.91046	-79.77078	586.90973	0.47498	932.76300	-166.18477	-86.26646	636.16895	-113.96095	65.87491	641.78766	-121.71841	-45.87115	479.73615	755.14594	105.03375	477.58865	749.29828	
30	0.290	-243.07455	31.26158	-19.43431	228.97859	36.35955	-40.16441	-192.29305	-77.85047	601.00885	235.86726	-79.79583	586.91296	0.35688	933.11328	-166.60629	-86.18279	636.23157	-113.93251	65.65048	642.14111	-121.78194	-45.96704	479.64899	755.18774	104.89700	477.49844	749.33618	
31	0.300	-243.04414	31.28279	-19.46091	229.09184	36.41972	-40.10764	-192.29379	-77.85683	601.01617	235.90425	-79.79192	586.91156	0.36001	933.60260	-167.04285	-86.11367	636.29816	-113.90870	66.03651	641.92645	-121.63356	-46.06465	479.61871	755.20233	105.07198	477.60474	749.39685	
32	0.310	-243.03664	31.27010	-19.44835	229.04291	36.37083	-40.15468	-192.29622	-77.82812	600.99255	235.88075	-79.78111	586.91235	0.47094	934.11115	-167.45866	-85.99254	636.38641	-113.92816	66.25246	641.99805	-121.47959	-46.10883	479.61655	755.23859	104.97108	477.54321	749.43726	
33	0.320	-243.00139	31.32199	-19.48145	229.07329	36.33842	-40.16593	-192.28424	-77.83333	600.98523	235.89070	-79.77728	586.88141	0.41037	934.60309	-168.07088	-85.98302	636.53149	-113.89639	66.18357	642.13287	-121.46909	-46.28648	479.61899	755.24451	104.62353	477.44531	749.47571	
34	0.330	-242.99239	31.31934	-19.50548	229.15146	36.43686	-40.07766	-192.28752	-77.83386	600.98175	235.88144	-79.76019	586.89124	0.20033	935.00104	-168.72379	-85.87937	636.65112	-113.87974	66.35324	642.23267	-121.30758	-46.34441	479.56891	755.27417	104.92045	477.60599	749.38733	
35	0.340	-242.98819	31.33529	-19.53139	229.12363	36.37274	-40.09322	-192.31128	-77.84383	600.99548	235.85492	-79.74753	586.91687	0.14704	935.39459	-169.15634	-85.87750	636.80469	-113.86256	66.32474	642.11346	-120.75428	-46.40215	479.55365	755.33588	104.72343	477.47433	749.62030	
36	0.350	-242.94862	31.27713	-19.53255	229.06549	36.35874	-40.09538	-192.30423	-77.84391	601.00623	235.82426	-79.76507	586.91901	-0.06389	935.76666	-169.84634	-85.82755	637.06738	-113.82237	66.16312	642.36169	-120.70530	-46.50436	479.50128	755.40167	104.66914	477.42722	749.66266	
37	0.360	-242.98390	31.24902	-19.49466	229.11092	36.42434	-40.11828	-192.28885	-77.86150	601.02148	235.87065	-79.77035	586.93732	-0.05427	936.17767	-170.39906	-85.77518	637.23779	-113.76956	66.24822	642.49414	-120.63221	-46.41096	479.46420	755.43365	104.66342	477.35477	749.72693	
38	0.370	-243.00888	31.23471	-19.47694	229.05981	36.34235	-40.12167	-192.29613	-77.84789	601.00891	235.86246	-79.76608	586.91180	-0.06686	936.62451	-171.06076	-85.67472	637.43542	-113.70440	66.24268	642.61945	-120.51623	-46.45264	479.35492	755.50970	104.55556	477.30875	749.74500	
39	0.380	-243.01462	31.30527	-19.54337	229.12241	36.34692	-40.11069	-192.29800	-77.84330	600.99127	235.88228	-79.78591	586.95392	0.06447	937.08374	-171.40715	-85.64880	637.58197	-113.68990	66.27100	642.79895	-120.39351	-46.48464	479.26953	755.53754	104.55633	477.28217	749.76154	
